<?xml version="1.0" standalone="no"?>
<!DOCTYPE svg PUBLIC "-//W3C//DTD SVG 20010904//EN"
 "http://www.w3.org/TR/2001/REC-SVG-20010904/DTD/svg10.dtd">
<svg version="1.0" xmlns="http://www.w3.org/2000/svg"
 width="498.000000pt" height="122.000000pt" viewBox="0 0 498.000000 122.000000"
 preserveAspectRatio="xMidYMid meet">

<g transform="translate(0.000000,122.000000) scale(0.100000,-0.100000)"
fill="#000000" stroke="none">
<path d="M681 433 c73 -156 301 -648 306 -660 4 -10 -13 -13 -66 -13 l-71 0 -42 90 -41
90 -132 0 -132 0 -34 -90 -34 -90 -74 0 c-54 0 -72 3 -68 13 3 6 30 68 60 137
30 69 94 213 140 320 126 287 127 290 138 290 5 0 28 -39 50 -87z m3846 -293
l73 -75 0 208 0 207 60 0 60 0 0 -360 c0 -198 -3 -360 -8 -360 -4 0 -99 101
-212 224 -113 123 -206 223 -208 222 -2 -2 -6 -149 -11 -394 l-1 -53 -57 3
-58 3 2 340 c1 187 2 355 2 374 1 32 4 30 143 -115 79 -82 175 -183 215 -224z
m-652 335 c109 -29 171 -81 231 -195 27 -51 29 -63 29 -165 0 -101 -2 -115
-29 -169 -75 -153 -242 -229 -426 -196 -161 29 -263 139 -292 314 -9 52 -7 78
6 139 47 211 258 330 481 272z m-2765 -247 c0 -231 2 -255 20 -293 49 -102
206 -115 274 -22 20 27 21 45 26 295 l5 267 68 3 68 3 -3 -268 c-3 -248 -5
-271 -24 -313 -48 -102 -139 -153 -273 -153 -106 -1 -175 26 -226 86 -61 71
-67 104 -73 374 -2 134 -2 250 2 258 4 11 22 15 71 15 l65 0 0 -252z m890 228
c88 -33 133 -97 134 -191 1 -73 -25 -129 -75 -163 -19 -13 -35 -27 -37 -32 -2
-6 39 -72 90 -147 52 -76 98 -144 102 -150 5 -10 -12 -13 -73 -13 l-80 0 -58
91 c-32 50 -84 131 -115 180 -32 50 -58 92 -58 94 0 2 24 7 53 11 74 10 117
53 117 118 0 36 -6 52 -29 78 -27 30 -34 33 -105 36 l-76 4 0 -306 0 -306 -65
0 -65 0 0 361 0 361 148 -4 c102 -4 161 -10 192 -22z m635 -31 l-1 -50 -129
-5 -130 -5 -3 -92 -3 -93 121 0 120 0 0 -55 0 -55 -120 0 -120 0 0 -105 0
-105 150 0 150 0 0 -50 0 -50 -219 0 -219 0 -1 350 c-1 193 1 355 4 361 4 6
83 8 203 7 l197 -3 0 -50z m357 -46 c40 -56 77 -107 83 -115 6 -9 -5 -29 -41
-70 -28 -32 -55 -59 -60 -61 -6 -2 -33 27 -61 64 -103 140 -184 255 -190 269
-4 11 12 14 95 14 l100 0 74 -101z m458 94 c0 -5 -50 -73 -112 -153 -189 -245
-309 -401 -380 -495 l-69 -90 -57 -5 c-128 -11 -133 -28 75 249 269 355 344
453 366 479 18 19 30 22 99 22 43 0 78 -3 78 -7z m-189 -450 c23 -32 68 -92
99 -133 31 -41 65 -87 75 -102 l17 -28 -100 0 -101 0 -76 100 -76 100 52 60
c29 33 55 60 59 60 4 0 27 -26 51 -57z"/>
<path d="M608 808 c-9 -24 -25 -67 -37 -95 l-21 -53 80 0 c57 0 80 4 80 13 0
17 -72 177 -79 177 -4 0 -14 -19 -23 -42z"/>
<path d="M3704 988 c-97 -20 -166 -125 -166 -252 0 -89 14 -142 51 -193 70
-96 234 -113 325 -32 54 47 78 110 78 204 0 121 -42 214 -114 251 -42 22 -124
32 -174 22z"/>
</g>
</svg>
